<?xml version="1.0" encoding="UTF-8" standalone="no"?>
<svg
   width="26.999969"
   height="26.99074"
   viewBox="0 0 26.999969 26.99074"
   fill="none"
   version="1.1"
   id="svg2"
   sodipodi:docname="favicon_optimus.svg"
   inkscape:version="1.3.1 (9b9bdc1480, 2023-11-25, custom)"
   xmlns:inkscape="http://www.inkscape.org/namespaces/inkscape"
   xmlns:sodipodi="http://sodipodi.sourceforge.net/DTD/sodipodi-0.dtd"
   xmlns="http://www.w3.org/2000/svg"
   xmlns:svg="http://www.w3.org/2000/svg">
  <defs
     id="defs2" />
  <sodipodi:namedview
     id="namedview2"
     pagecolor="#ffffff"
     bordercolor="#000000"
     borderopacity="0.25"
     inkscape:showpageshadow="2"
     inkscape:pageopacity="0.0"
     inkscape:pagecheckerboard="0"
     inkscape:deskcolor="#d1d1d1"
     inkscape:zoom="4.6013514"
     inkscape:cx="24.77533"
     inkscape:cy="13.474302"
     inkscape:window-width="1366"
     inkscape:window-height="704"
     inkscape:window-x="0"
     inkscape:window-y="0"
     inkscape:window-maximized="1"
     inkscape:current-layer="svg2" />
  <path
     fill-rule="evenodd"
     clip-rule="evenodd"
     d="m 12.524301,0.01413648 c -1.7079,0.166467 -3.08785,0.510695 -4.43204,1.10559502 -0.98867,0.43751 -2.17351,1.12485 -2.45432,1.42375 -0.27938,0.29737 -0.09581,0.78364 0.32027,0.84859 0.15866,0.02474 0.25585,-0.01942 0.76222,-0.34639 0.68,-0.43915 1.73484,-0.96836 2.47985,-1.24425 0.53227,-0.19713 1.84462,-0.55153 2.04222,-0.55153 0.1048,0 0.105,0.00274 0.0102,0.14509 -0.8546,1.28256 -1.45483,2.8692 -1.94351,5.13731 l -0.08659,0.40185 -0.35304,0.08711 c -0.77202,0.19047 -1.35711,0.74258 -1.61417,1.52311 -0.02839,0.08626 -0.20034,0.09233 -2.61746,0.09233 -1.42286,0 -2.58702,-0.01514 -2.58702,-0.03372 0,-0.09439 0.61105,-1.26694 0.87602,-1.68107 0.37826,-0.59105 0.40411,-0.7962 0.13096,-1.04022 -0.15132,-0.13524 -0.20831,-0.15476 -0.38337,-0.13128 -0.27131,0.03641 -0.31204,0.07577 -0.65812,0.63521 -2.78450502,4.5014395 -2.67734302,10.2419395 0.27326,14.6402395 l 0.22446,0.3346 -0.15518,0.3008 c -0.21416,0.4152 -0.29357,0.9119 -0.21717,1.3579 0.25495,1.4883 1.85683,2.3 3.18614,1.6144 l 0.29858,-0.154 0.46785,0.3032 c 2.14481,1.39 4.40236,2.1038 6.95306,2.1987 4.7079,0.1751 9.1484,-2.1374 11.7785,-6.1339 1.493,-2.2686 2.2673,-5.0619 2.1651,-7.8097 -0.0948,-2.5508 -0.8087,-4.8082795 -2.1987,-6.9530895 l -0.3032,-0.46785 0.154,-0.29858 c 0.2131,-0.41314 0.2923,-0.91043 0.216,-1.35575 -0.2551,-1.48955 -1.8568,-2.29993 -3.1883,-1.61322 l -0.3008,0.15517 -0.3346,-0.22445 c -1.6791,-1.12643 -3.5661,-1.85081602 -5.6355,-2.16348902 -0.5255,-0.079408 -2.4197,-0.146892 -2.8756,-0.102466 z m 1.438,1.15476502 c 1.1577,0.53898 2.3151,3.15602 2.8594,6.46531 0.0596,0.36274 0.1214,0.73693 0.1373,0.83149 l 0.0288,0.17195 -2.7251,-0.01367 -2.7251,-0.01366 -0.0964,-0.25395 c -0.1795,-0.47312 -0.5127,-0.82964 -1.1539,-1.2346 -0.0311,-0.01957 0.1351,-0.78595 0.3466,-1.59808 0.6956,-2.67265 1.8535,-4.48379 2.8666,-4.48379 0.1015,0 0.3094,0.05804 0.4618,0.129 z m 2.6068,0.25907 c 0.3871,0.09793 0.9413,0.26598 1.2315,0.37346 1.2034,0.44563 2.9239,1.41135 2.8504,1.59992 -0.1279,0.32808 -0.1961,0.7562 -0.1701,1.06713 0.1285,1.53593 1.6383,2.44525 3.1085,1.87214 0.0708,-0.02765 0.1562,0.06569 0.3948,0.43133 0.2882,0.44158 0.9658,1.71691 0.9658,1.81779 0,0.02696 -1.4687,0.04696 -3.4458,0.04696 h -3.4459 l -0.1443,-0.88378 c -0.4202,-2.57393 -1.1173,-4.72201 -1.9563,-6.02816 -0.1212,-0.18863 -0.2383,-0.37261 -0.2602,-0.40891 -0.0628,-0.10368 0.1028,-0.08236 0.8716,0.11212 z m 6.6461,1.86881 c 0.8605,0.44954 0.8103,1.66625 -0.0855,2.07543 -0.7678,0.35071 -1.6793,-0.31479 -1.5975,-1.16633 0.0556,-0.57902 0.5749,-1.05652 1.149,-1.05652 0.1731,0 0.34,0.04606 0.534,0.14742 z m -19.34925,0.77065 c -0.19738,0.19739 -0.22672,0.36744 -0.1042,0.6044 0.18161,0.35114 0.72327,0.35114 0.90488,0 0.14003,-0.27083 0.05472,-0.57881 -0.19628,-0.7086 -0.23695,-0.12252 -0.40701,-0.09318 -0.6044,0.1042 z m 6.03033,4.06976 c 0.55182,0.275 0.79792,0.93438 0.55072,1.47567 -0.4112,0.9000995 -1.62413,0.9457995 -2.08005,0.0783 -0.12811,-0.24381 -0.1488,-0.33657 -0.13117,-0.58872 0.05883,-0.84162 0.91258,-1.33791 1.6605,-0.96525 z m -2.64089,1.64707 c 0.19079,0.5793995 0.63505,1.1078995 1.13736,1.3532995 l 0.30048,0.1468 -0.03018,1.4594 c -0.02701,1.3052 0.01061,2.5518 0.12326,4.0844 l 0.03392,0.4617 h -3.59162 -3.59162 l -0.05551,-0.1715 c -0.11539,-0.3565 -0.3198,-1.2791 -0.4096,-1.8488 -0.0697,-0.4425 -0.09281,-0.8972 -0.09175,-1.8051 0.00174,-1.4416 0.10431,-2.1935 0.47692,-3.4954995 l 0.07925,-0.277 h 2.79432 c 2.61456,0 2.79633,0.006 2.82477,0.0923 z m 9.85761,-0.0263 c 0.1092,0.3366995 0.2192,3.7307995 0.1622,5.0063995 l -0.0393,0.8777 -0.1742,0.0283 c -0.3195,0.0519 -0.7587,0.3108 -1.0564,0.623 -0.263,0.2756 -0.5508,0.7607 -0.5521,0.9305 -8e-4,0.0966 -5.53402,0.0966 -5.56531,0 -0.10912,-0.3363 -0.21918,-3.7305 -0.16225,-5.0038 l 0.0391,-0.8752 0.25756,-0.066 c 0.3252,-0.0833 0.821,-0.4014 1.0427,-0.669 0.1534,-0.185 0.3689,-0.581 0.4495,-0.8255995 0.0285,-0.0863 0.2092,-0.0923 2.8038,-0.0923 2.1721,0 2.778,0.0143 2.7947,0.066 z m 8.3064,0.1055 c 0.1161,0.3585995 0.32,1.2801995 0.4089,1.8486995 0.131,0.8362 0.1313,2.6854 8e-4,3.5199 -0.0971,0.6208 -0.241,1.288 -0.3841,1.7807 l -0.0804,0.2771 h -2.8073 -2.8073 l -0.1512,-0.3469 c -0.1915,-0.4398 -0.5688,-0.8542 -0.9747,-1.0705 l -0.3166,-0.1687 0.0303,-1.4626 c 0.0271,-1.3085 -0.0104,-2.5537 -0.1232,-4.0875 l -0.0339,-0.4616995 h 3.5916 3.5916 z m -7.3252,6.9382995 c 0.1875,0.095 0.3409,0.224 0.4448,0.3739 0.1433,0.2067 0.1586,0.2686 0.1586,0.6418 0,0.3732 -0.0153,0.4351 -0.1586,0.6418 -0.1855,0.2675 -0.6315,0.5191 -0.9193,0.5186 -0.667,-0.001 -1.1852,-0.5083 -1.1852,-1.1604 0,-0.8737 0.879,-1.4116 1.6597,-1.0157 z m -9.00731,2.4271 c 0.42855,2.625 1.12851,4.7561 2.00611,6.1073 0.1986,0.3057 0.2243,0.372 0.1493,0.3845 -0.1425,0.0239 -1.45957,-0.3246 -2.04202,-0.5403 -1.20341,-0.4456 -2.92385,-1.4114 -2.85035,-1.5999 0.12789,-0.3281 0.19612,-0.7562 0.1701,-1.0672 -0.12853,-1.5359 -1.63834,-2.4452 -3.10847,-1.8721 -0.07081,0.0276 -0.15623,-0.0657 -0.39488,-0.4313 -0.28819,-0.4416 -0.96577,-1.7169 -0.96577,-1.8178 0,-0.027 1.46866,-0.047 3.44584,-0.047 h 3.44584 z m 6.36631,-0.8178 c 3e-4,0.0363 0.0588,0.1911 0.13,0.3441 0.16,0.3436 0.5855,0.8016 0.8998,0.9683 0.1298,0.0688 0.236,0.1524 0.236,0.1856 0,0.1217 -0.3206,1.4679 -0.4798,2.0148 -0.5934,2.0378 -1.4518,3.5048 -2.2751,3.8882 -0.3516,0.1636 -0.5753,0.1638 -0.9255,8e-4 -1.159,-0.5396 -2.2727,-3.0564 -2.861,-6.4653 -0.0877,-0.5078 -0.1594,-0.9411 -0.1594,-0.9629 -10e-5,-0.0218 1.2227,-0.0396 2.7172,-0.0396 2.1384,0 2.7174,0.014 2.7178,0.066 z m 9.4968,-0.0315 c 0,0.0705 -0.6244,1.2736 -0.8454,1.6287 -0.9822,1.5787 -2.508,3.1046 -4.0868,4.0868 -0.5532,0.3442 -1.5175,0.8158 -2.1668,1.0599 -0.5756,0.2163 -1.882,0.5769 -2.0901,0.5769 -0.1075,0 -0.1077,-0.0024 -0.0126,-0.1451 0.8466,-1.2707 1.4728,-2.9249 1.9441,-5.1362 l 0.0854,-0.4008 0.328,-0.0911 c 0.7061,-0.1964 1.2147,-0.6279 1.493,-1.2667 l 0.1512,-0.3469 h 2.6 c 1.43,0 2.6,0.0155 2.6,0.0345 z m -20.09632,3.2787 c 0.88314,0.4614 0.79508,1.7414 -0.14447,2.1002 -0.75287,0.2875 -1.59513,-0.3412 -1.53867,-1.1487 0.04274,-0.6112 0.55274,-1.0989 1.14918,-1.0989 0.17311,0 0.33995,0.046 0.53396,0.1474 z"
     fill="#8e2424"
     id="path1"
     sodipodi:nodetypes="ccccccscccccsscccccccsscscccscccccccccccccccccscccccccssccccccscsccccccccccccsccccccsccccsccccsccccccccscccccccccccccccccccsccscccccccscsscccccscccccscscccsccccccsscccsc" />
</svg>
